<?xml version="1.0" standalone="no"?>
<!DOCTYPE svg PUBLIC "-//W3C//DTD SVG 20010904//EN"
 "http://www.w3.org/TR/2001/REC-SVG-20010904/DTD/svg10.dtd">
<svg version="1.0" xmlns="http://www.w3.org/2000/svg"
 width="1592.000000pt" height="1592.000000pt" viewBox="0 0 1592.000000 1592.000000"
 preserveAspectRatio="xMidYMid meet">
<metadata>
Created by potrace 1.14, written by Peter Selinger 2001-2017
</metadata>
<g transform="translate(0.000000,1592.000000) scale(0.100000,-0.100000)"
fill="#000000" stroke="none">
<path d="M2769 11726 c-2 -2 -33 -6 -69 -9 -143 -12 -321 -71 -328 -109 -2
-10 12 -21 41 -32 25 -9 52 -25 61 -35 15 -17 14 -18 -26 -19 -200 -8 -546
-102 -958 -262 -237 -92 -359 -130 -463 -146 -56 -9 -108 -18 -115 -20 -53
-15 93 -185 210 -243 l38 -18 -63 -38 c-237 -145 -448 -380 -587 -655 -72
-142 -154 -390 -175 -530 -4 -25 -9 -56 -12 -70 -20 -110 -28 -344 -14 -425
10 -59 34 -53 76 20 32 55 35 57 29 25 -7 -43 -7 -402 0 -450 3 -19 8 -71 11
-115 3 -44 8 -92 11 -106 5 -25 2 -27 -43 -33 -95 -12 -195 -92 -248 -195 -85
-168 -109 -420 -70 -746 18 -156 62 -304 124 -417 23 -40 69 -124 103 -187 68
-123 122 -187 187 -221 36 -18 40 -23 31 -40 -6 -11 -9 -20 -6 -20 3 0 -1 -21
-9 -47 -26 -92 -23 -142 13 -178 26 -26 28 -32 21 -74 -8 -48 -4 -264 5 -279
3 -5 7 -19 9 -33 46 -244 201 -512 374 -644 32 -24 57 -56 76 -93 34 -67 125
-204 165 -248 65 -70 131 -104 159 -82 9 7 20 1 37 -18 13 -16 22 -32 20 -35
-2 -4 -50 -7 -106 -8 -57 -1 -188 -4 -293 -8 -222 -6 -591 -8 -720 -3 -92 4
-211 -18 -249 -45 -15 -11 -16 -76 -14 -791 l3 -779 48 44 48 45 -5 -95 c-3
-52 -8 -143 -11 -204 -21 -440 -32 -610 -49 -725 -13 -85 -17 -105 -26 -140
-6 -21 -10 -460 -10 -1112 l0 -1078 1043 0 c982 0 1043 1 1053 18 6 9 75 136
154 282 78 146 157 292 175 325 17 33 58 110 90 170 32 61 61 115 65 120 4 6
27 46 50 90 43 82 75 141 137 253 224 404 385 745 520 1102 13 36 30 81 38
100 7 19 37 99 67 177 29 79 56 143 59 143 6 0 446 -590 837 -1123 73 -100
143 -190 155 -200 21 -18 40 -18 148 -1 19 3 31 -2 42 -19 9 -12 26 -34 39
-49 13 -14 30 -35 38 -45 9 -10 57 -68 108 -130 51 -61 107 -123 125 -137 17
-15 37 -31 44 -36 11 -9 79 -41 118 -55 185 -69 388 9 499 190 50 82 53 87
103 170 26 44 53 89 60 100 41 68 149 302 198 430 57 150 208 532 225 570 5
11 39 92 75 180 36 88 70 169 75 180 5 11 34 83 66 160 31 77 62 154 69 170
15 35 102 245 135 328 22 53 29 60 89 93 129 71 253 181 331 294 21 31 68 116
105 190 70 141 69 141 155 197 55 37 328 192 339 194 3 0 37 21 75 47 88 59
122 116 112 186 -10 67 -63 118 -133 131 -39 6 -97 -14 -325 -118 -104 -47
-188 -85 -188 -84 0 1 76 79 169 174 192 196 278 294 297 339 22 52 1 126 -48
170 -75 69 -157 66 -238 -7 -25 -22 -76 -68 -114 -102 -37 -34 -78 -71 -90
-82 -13 -11 -58 -51 -101 -90 -43 -38 -86 -79 -96 -89 -47 -49 -35 -19 160
409 18 39 38 81 46 95 7 14 24 61 38 105 38 123 23 187 -56 239 -77 49 -139
46 -205 -10 -32 -27 -59 -72 -127 -208 -47 -96 -85 -177 -85 -181 0 -14 -152
-314 -164 -324 -10 -9 -12 20 -8 142 11 340 7 548 -12 611 -23 78 -40 101 -89
125 -95 45 -222 -8 -248 -102 -7 -23 -13 -121 -14 -217 -3 -157 -9 -279 -20
-350 -2 -14 -7 -50 -10 -80 -16 -152 -93 -420 -121 -420 -21 0 -86 69 -132
139 -72 112 -144 176 -253 227 -123 58 -215 47 -275 -32 -22 -29 -28 -46 -27
-87 1 -50 2 -53 70 -116 158 -151 216 -245 228 -372 15 -163 74 -311 206 -515
35 -54 80 -121 100 -147 l36 -49 -52 -91 c-29 -51 -94 -162 -145 -247 -96
-161 -127 -215 -167 -289 -32 -59 -60 -109 -125 -221 -30 -52 -101 -178 -158
-280 -57 -102 -109 -193 -115 -202 -10 -16 -19 -8 -70 65 -117 163 -417 559
-843 1112 -59 77 -119 156 -131 175 -50 75 -168 178 -245 214 -42 20 -81 36
-87 36 -10 0 -397 196 -494 250 -16 9 -86 45 -154 80 l-123 64 60 30 c59 29
62 29 81 12 16 -15 32 -17 88 -13 160 11 338 105 513 270 49 47 60 52 100 52
39 0 58 9 125 54 75 51 205 157 232 189 10 12 17 13 42 2 39 -16 60 -8 111 43
143 143 270 443 303 720 3 24 14 44 30 57 13 11 35 41 47 67 19 40 22 59 17
123 -4 73 -4 76 18 78 60 5 137 45 192 100 93 92 259 273 291 318 118 162 238
485 273 733 15 107 6 247 -20 331 -40 123 -129 208 -243 232 -52 11 -57 14
-51 33 3 11 27 101 53 199 27 102 50 174 54 167 4 -6 9 -41 11 -77 1 -36 6
-68 9 -72 7 -6 45 35 46 50 0 3 22 53 49 110 141 296 187 497 178 771 -7 236
-62 459 -162 660 -48 98 -41 98 32 2 26 -36 54 -65 61 -65 45 -1 -42 345 -125
500 -86 159 -247 332 -393 422 -50 31 -97 59 -103 61 -6 2 -12 39 -14 86 -7
144 -85 406 -121 406 -8 0 -25 -26 -38 -59 -39 -96 -43 -96 -74 -7 -63 184
-182 349 -351 487 -81 66 -212 146 -283 173 -63 23 -142 35 -151 22 -3 -6 6
-50 19 -98 30 -106 47 -291 25 -277 -8 5 -53 35 -100 66 -174 116 -352 190
-593 248 -124 30 -145 34 -225 46 -25 4 -55 8 -66 10 -27 6 -251 14 -256 10z"/>
<path d="M10025 11264 c-63 -20 -82 -37 -110 -97 -20 -42 -23 -62 -20 -147 2
-54 6 -123 10 -152 12 -98 15 -123 20 -173 3 -27 8 -61 10 -75 2 -14 7 -50 10
-80 7 -68 12 -106 30 -230 10 -66 14 -92 20 -120 4 -14 8 -38 11 -53 5 -28 39
-92 59 -113 40 -41 102 -59 172 -48 33 5 56 17 86 45 45 43 47 45 47 26 0 -20
62 -74 95 -82 104 -26 163 -8 211 65 l25 38 56 -28 c88 -44 206 -56 308 -31
57 14 167 70 180 92 4 5 24 -10 46 -35 37 -42 133 -99 165 -99 20 0 17 -20 -6
-44 -18 -20 -27 -21 -119 -16 -88 5 -105 3 -143 -16 -58 -29 -79 -61 -85 -131
-14 -147 118 -252 314 -252 161 0 292 85 367 238 23 46 87 220 86 232 -2 21 3
22 19 8 13 -12 40 -19 88 -21 57 -2 75 1 113 21 52 29 99 89 107 138 9 54 -15
131 -52 172 -51 55 -98 67 -200 50 l-40 -7 -3 83 c-1 46 -4 97 -6 113 -13 102
-62 192 -122 220 -73 35 -191 12 -229 -44 l-19 -30 -23 35 c-61 88 -197 100
-273 24 -17 -17 -21 -18 -34 -5 -23 23 -107 63 -157 74 -25 6 -82 8 -127 6
-104 -5 -184 -39 -245 -104 l-44 -47 -46 41 c-54 49 -148 84 -219 80 -27 -1
-48 0 -49 4 0 3 -2 15 -4 26 -2 11 -7 43 -10 70 -3 28 -8 57 -10 65 -2 8 -7
40 -10 70 -7 66 -29 144 -53 184 -39 66 -109 87 -197 60z"/>
</g>
</svg>
